<svg width="25" height="25" viewBox="0 0 25 25" fill="none" xmlns="http://www.w3.org/2000/svg">
<path opacity="0.1" d="M23.5 12.25C23.5 2.98563 21.5144 1 12.25 1C2.98563 1 1 2.98563 1 12.25C1 21.5144 2.98563 23.5 12.25 23.5C21.5144 23.5 23.5 21.5144 23.5 12.25Z" fill="#9831C0"/>
<path d="M23.5 12.25C23.5 2.98563 21.5144 1 12.25 1C2.98563 1 1 2.98563 1 12.25C1 21.5144 2.98563 23.5 12.25 23.5C21.5144 23.5 23.5 21.5144 23.5 12.25Z" stroke="#9831C0" stroke-width="2"/>
<path d="M7.25 12.25H17.25" stroke="#9831C0" stroke-width="2" stroke-linecap="round" stroke-linejoin="round"/>
<path d="M11 16L7.35875 12.3587C7.29875 12.2987 7.29875 12.2013 7.35875 12.1413L11 8.5" stroke="#9831C0" stroke-width="2" stroke-linecap="round" stroke-linejoin="round"/>
</svg>
