<svg width="300" height="1115" viewBox="0 0 300 1115" fill="none" xmlns="http://www.w3.org/2000/svg">
<g clip-path="url(#clip0_39_59)">
<path d="M209.927 14.207C191.604 5.04492 167.481 0 142 0C116.519 0 92.3965 5.04492 74.073 14.207C53.3906 24.5484 42 39.1629 42 55.357V144.643C42 160.837 53.3906 175.451 74.073 185.793C92.3965 194.955 116.519 200 142 200C167.481 200 191.604 194.955 209.927 185.793C230.609 175.452 242 160.837 242 144.643V55.357C242 39.1629 230.609 24.5484 209.927 14.207Z" fill="#57565C"/>
<path d="M215.857 44.6429C205.112 32.28 177.002 21.4285 142 21.4285C106.999 21.4285 78.8881 32.28 68.1432 44.6429C65.0838 48.1636 63.4287 51.8074 63.4287 55.3574C63.4287 58.9074 65.083 62.5511 68.1432 66.0718C78.8881 78.4347 106.999 89.2863 142 89.2863C177.001 89.2863 205.112 78.4347 215.857 66.0718C218.917 62.5511 220.572 58.9074 220.572 55.3574C220.572 51.807 218.917 48.1636 215.857 44.6429Z" fill="#DEDEE0"/>
<path d="M165.951 44.6429C160.066 41.3558 151.518 39.2859 142 39.2859C132.482 39.2859 123.934 41.3558 118.049 44.6429C112.957 47.4867 109.857 51.2402 109.857 55.3574C109.857 59.4746 112.957 63.2281 118.048 66.0718C123.933 69.3589 132.481 71.4289 142 71.4289C151.518 71.4289 160.066 69.3589 165.952 66.0718C171.042 63.2281 174.142 59.4746 174.142 55.3574C174.143 51.2398 171.043 47.4863 165.951 44.6429Z" fill="#E07188"/>
<path d="M109.857 55.3571C109.857 59.4743 112.957 63.2278 118.048 66.0716C123.933 69.3587 132.481 71.4294 142 71.4294V39.2856C132.482 39.2856 123.934 41.3556 118.049 44.6427C112.957 47.4864 109.857 51.2399 109.857 55.3571Z" fill="#FF3F62"/>
<path d="M118.048 66.0714C112.957 63.2277 109.857 59.4742 109.857 55.357C109.857 51.2398 112.957 47.4863 118.049 44.6425C123.935 41.3554 132.482 39.2855 142 39.2855V21.4285C106.999 21.4285 78.8881 32.28 68.1432 44.6429C65.0838 48.1636 63.4287 51.8074 63.4287 55.3574C63.4287 58.9074 65.083 62.5511 68.1432 66.0718C78.8881 78.4347 106.999 89.2863 142 89.2863V71.43C132.481 71.4292 123.933 69.3585 118.048 66.0714Z" fill="#D6D5D8"/>
<path d="M74.073 185.793C92.3965 194.954 116.519 200 142 200V89.2855C106.998 89.2855 78.8879 78.434 68.143 66.0711C65.0836 62.5504 63.4285 58.9066 63.4285 55.3566C63.4285 51.8066 65.0828 48.1629 68.143 44.6422C78.8879 32.2801 106.998 21.4285 142 21.4285V0C116.519 0 92.3965 5.04492 74.073 14.207C53.3906 24.5484 42 39.1629 42 55.357V144.643C42 160.837 53.3906 175.452 74.073 185.793Z" fill="#3E3D42"/>
</g>
<g clip-path="url(#clip1_39_59)">
<path d="M267.927 461.207C249.604 452.045 225.481 447 200 447C174.519 447 150.396 452.045 132.073 461.207C111.391 471.548 100 486.163 100 502.357V591.643C100 607.837 111.391 622.451 132.073 632.793C150.396 641.955 174.519 647 200 647C225.481 647 249.604 641.955 267.927 632.793C288.609 622.452 300 607.837 300 591.643V502.357C300 486.163 288.609 471.548 267.927 461.207Z" fill="#57565C"/>
<path d="M273.857 491.643C263.112 479.28 235.002 468.428 200 468.428C164.999 468.428 136.888 479.28 126.143 491.643C123.084 495.164 121.429 498.807 121.429 502.357C121.429 505.907 123.083 509.551 126.143 513.072C136.888 525.435 164.999 536.286 200 536.286C235.001 536.286 263.112 525.435 273.857 513.072C276.917 509.551 278.572 505.907 278.572 502.357C278.572 498.807 276.917 495.164 273.857 491.643Z" fill="#DEDEE0"/>
<path d="M223.951 491.643C218.066 488.356 209.518 486.286 200 486.286C190.482 486.286 181.934 488.356 176.049 491.643C170.957 494.487 167.857 498.24 167.857 502.357C167.857 506.475 170.957 510.228 176.048 513.072C181.933 516.359 190.481 518.429 200 518.429C209.518 518.429 218.066 516.359 223.952 513.072C229.042 510.228 232.142 506.475 232.142 502.357C232.143 498.24 229.043 494.486 223.951 491.643Z" fill="#E07188"/>
<path d="M167.857 502.357C167.857 506.474 170.957 510.228 176.048 513.072C181.933 516.359 190.481 518.429 200 518.429V486.286C190.482 486.286 181.934 488.356 176.049 491.643C170.957 494.486 167.857 498.24 167.857 502.357Z" fill="#FF3F62"/>
<path d="M176.048 513.071C170.957 510.228 167.857 506.474 167.857 502.357C167.857 498.24 170.957 494.486 176.049 491.643C181.935 488.355 190.482 486.285 200 486.285V468.428C164.999 468.428 136.888 479.28 126.143 491.643C123.084 495.164 121.429 498.807 121.429 502.357C121.429 505.907 123.083 509.551 126.143 513.072C136.888 525.435 164.999 536.286 200 536.286V518.43C190.481 518.429 181.933 516.359 176.048 513.071Z" fill="#D6D5D8"/>
<path d="M132.073 632.793C150.396 641.954 174.519 647 200 647V536.286C164.998 536.286 136.888 525.434 126.143 513.071C123.084 509.55 121.429 505.907 121.429 502.357C121.429 498.807 123.083 495.163 126.143 491.642C136.888 479.28 164.998 468.429 200 468.429V447C174.519 447 150.396 452.045 132.073 461.207C111.391 471.548 100 486.163 100 502.357V591.643C100 607.837 111.391 622.452 132.073 632.793Z" fill="#3E3D42"/>
</g>
<g clip-path="url(#clip2_39_59)">
<path d="M267.927 751.207C249.604 742.045 225.481 737 200 737C174.519 737 150.396 742.045 132.073 751.207C111.391 761.548 100 776.163 100 792.357V881.643C100 897.837 111.391 912.451 132.073 922.793C150.396 931.955 174.519 937 200 937C225.481 937 249.604 931.955 267.927 922.793C288.609 912.452 300 897.837 300 881.643V792.357C300 776.163 288.609 761.548 267.927 751.207Z" fill="#57565C"/>
<path d="M273.857 781.643C263.112 769.28 235.002 758.428 200 758.428C164.999 758.428 136.888 769.28 126.143 781.643C123.084 785.164 121.429 788.807 121.429 792.357C121.429 795.907 123.083 799.551 126.143 803.072C136.888 815.435 164.999 826.286 200 826.286C235.001 826.286 263.112 815.435 273.857 803.072C276.917 799.551 278.572 795.907 278.572 792.357C278.572 788.807 276.917 785.164 273.857 781.643Z" fill="#DEDEE0"/>
<path d="M223.951 781.643C218.066 778.356 209.518 776.286 200 776.286C190.482 776.286 181.934 778.356 176.049 781.643C170.957 784.487 167.857 788.24 167.857 792.357C167.857 796.475 170.957 800.228 176.048 803.072C181.933 806.359 190.481 808.429 200 808.429C209.518 808.429 218.066 806.359 223.952 803.072C229.042 800.228 232.142 796.475 232.142 792.357C232.143 788.24 229.043 784.486 223.951 781.643Z" fill="#E07188"/>
<path d="M167.857 792.357C167.857 796.474 170.957 800.228 176.048 803.072C181.933 806.359 190.481 808.429 200 808.429V776.286C190.482 776.286 181.934 778.356 176.049 781.643C170.957 784.486 167.857 788.24 167.857 792.357Z" fill="#FF3F62"/>
<path d="M176.048 803.071C170.957 800.228 167.857 796.474 167.857 792.357C167.857 788.24 170.957 784.486 176.049 781.643C181.935 778.355 190.482 776.285 200 776.285V758.428C164.999 758.428 136.888 769.28 126.143 781.643C123.084 785.164 121.429 788.807 121.429 792.357C121.429 795.907 123.083 799.551 126.143 803.072C136.888 815.435 164.999 826.286 200 826.286V808.43C190.481 808.429 181.933 806.359 176.048 803.071Z" fill="#D6D5D8"/>
<path d="M132.073 922.793C150.396 931.954 174.519 937 200 937V826.286C164.998 826.286 136.888 815.434 126.143 803.071C123.084 799.55 121.429 795.907 121.429 792.357C121.429 788.807 123.083 785.163 126.143 781.642C136.888 769.28 164.998 758.429 200 758.429V737C174.519 737 150.396 742.045 132.073 751.207C111.391 761.548 100 776.163 100 792.357V881.643C100 897.837 111.391 912.452 132.073 922.793Z" fill="#3E3D42"/>
</g>
<g clip-path="url(#clip3_39_59)">
<path d="M167.927 929.207C149.604 920.045 125.481 915 100 915C74.5191 915 50.3965 920.045 32.073 929.207C11.3906 939.548 0 954.163 0 970.357V1059.64C0 1075.84 11.3906 1090.45 32.073 1100.79C50.3965 1109.96 74.5191 1115 100 1115C125.481 1115 149.604 1109.96 167.927 1100.79C188.609 1090.45 200 1075.84 200 1059.64V970.357C200 954.163 188.609 939.548 167.927 929.207Z" fill="#57565C"/>
<path d="M173.857 959.643C163.112 947.28 135.002 936.428 100 936.428C64.9986 936.428 36.8881 947.28 26.1432 959.643C23.0838 963.164 21.4287 966.807 21.4287 970.357C21.4287 973.907 23.083 977.551 26.1432 981.072C36.8881 993.435 64.999 1004.29 100 1004.29C135.001 1004.29 163.112 993.435 173.857 981.072C176.917 977.551 178.572 973.907 178.572 970.357C178.572 966.807 176.917 963.164 173.857 959.643Z" fill="#DEDEE0"/>
<path d="M123.951 959.643C118.066 956.356 109.518 954.286 99.9999 954.286C90.4819 954.286 81.9343 956.356 76.0491 959.643C70.9569 962.487 67.8569 966.24 67.8569 970.357C67.8569 974.475 70.9569 978.228 76.0476 981.072C81.9331 984.359 90.4811 986.429 99.9995 986.429C109.518 986.429 118.066 984.359 123.952 981.072C129.042 978.228 132.142 974.475 132.142 970.357C132.143 966.24 129.043 962.486 123.951 959.643Z" fill="#E07188"/>
<path d="M67.8569 970.357C67.8569 974.474 70.9569 978.228 76.0476 981.072C81.9331 984.359 90.4811 986.429 99.9995 986.429V954.286C90.4815 954.286 81.9339 956.356 76.0487 959.643C70.9569 962.486 67.8569 966.24 67.8569 970.357Z" fill="#FF3F62"/>
<path d="M76.0479 981.071C70.9572 978.228 67.8572 974.474 67.8572 970.357C67.8572 966.24 70.9572 962.486 76.0494 959.643C81.9346 956.355 90.4822 954.285 100 954.285V936.428C64.9986 936.428 36.8881 947.28 26.1432 959.643C23.0838 963.164 21.4287 966.807 21.4287 970.357C21.4287 973.907 23.083 977.551 26.1432 981.072C36.8881 993.435 64.999 1004.29 100 1004.29V986.43C90.4811 986.429 81.9334 984.359 76.0479 981.071Z" fill="#D6D5D8"/>
<path d="M32.073 1100.79C50.3965 1109.95 74.5191 1115 100 1115V1004.29C64.9984 1004.29 36.8879 993.434 26.143 981.071C23.0836 977.55 21.4285 973.907 21.4285 970.357C21.4285 966.807 23.0828 963.163 26.143 959.642C36.8879 947.28 64.9984 936.429 100 936.429V915C74.5191 915 50.3965 920.045 32.073 929.207C11.3906 939.548 0 954.163 0 970.357V1059.64C0 1075.84 11.3906 1090.45 32.073 1100.79Z" fill="#3E3D42"/>
</g>
<g clip-path="url(#clip4_39_59)">
<path d="M167.927 624.207C149.604 615.045 125.481 610 100 610C74.5191 610 50.3965 615.045 32.073 624.207C11.3906 634.548 0 649.163 0 665.357V754.643C0 770.837 11.3906 785.451 32.073 795.793C50.3965 804.955 74.5191 810 100 810C125.481 810 149.604 804.955 167.927 795.793C188.609 785.452 200 770.837 200 754.643V665.357C200 649.163 188.609 634.548 167.927 624.207Z" fill="#57565C"/>
<path d="M173.857 654.643C163.112 642.28 135.002 631.428 100 631.428C64.9986 631.428 36.8881 642.28 26.1432 654.643C23.0838 658.164 21.4287 661.807 21.4287 665.357C21.4287 668.907 23.083 672.551 26.1432 676.072C36.8881 688.435 64.999 699.286 100 699.286C135.001 699.286 163.112 688.435 173.857 676.072C176.917 672.551 178.572 668.907 178.572 665.357C178.572 661.807 176.917 658.164 173.857 654.643Z" fill="#DEDEE0"/>
<path d="M123.951 654.643C118.066 651.356 109.518 649.286 99.9999 649.286C90.4819 649.286 81.9343 651.356 76.0491 654.643C70.9569 657.487 67.8569 661.24 67.8569 665.357C67.8569 669.475 70.9569 673.228 76.0476 676.072C81.9331 679.359 90.4811 681.429 99.9995 681.429C109.518 681.429 118.066 679.359 123.952 676.072C129.042 673.228 132.142 669.475 132.142 665.357C132.143 661.24 129.043 657.486 123.951 654.643Z" fill="#E07188"/>
<path d="M67.8569 665.357C67.8569 669.474 70.9569 673.228 76.0476 676.072C81.9331 679.359 90.4811 681.429 99.9995 681.429V649.286C90.4815 649.286 81.9339 651.356 76.0487 654.643C70.9569 657.486 67.8569 661.24 67.8569 665.357Z" fill="#FF3F62"/>
<path d="M76.0479 676.071C70.9572 673.228 67.8572 669.474 67.8572 665.357C67.8572 661.24 70.9572 657.486 76.0494 654.643C81.9346 651.355 90.4822 649.285 100 649.285V631.428C64.9986 631.428 36.8881 642.28 26.1432 654.643C23.0838 658.164 21.4287 661.807 21.4287 665.357C21.4287 668.907 23.083 672.551 26.1432 676.072C36.8881 688.435 64.999 699.286 100 699.286V681.43C90.4811 681.429 81.9334 679.359 76.0479 676.071Z" fill="#D6D5D8"/>
<path d="M32.073 795.793C50.3965 804.954 74.5191 810 100 810V699.286C64.9984 699.286 36.8879 688.434 26.143 676.071C23.0836 672.55 21.4285 668.907 21.4285 665.357C21.4285 661.807 23.0828 658.163 26.143 654.642C36.8879 642.28 64.9984 631.429 100 631.429V610C74.5191 610 50.3965 615.045 32.073 624.207C11.3906 634.548 0 649.163 0 665.357V754.643C0 770.837 11.3906 785.452 32.073 795.793Z" fill="#3E3D42"/>
</g>
<g clip-path="url(#clip5_39_59)">
<path d="M167.927 319.207C149.604 310.045 125.481 305 100 305C74.5191 305 50.3965 310.045 32.073 319.207C11.3906 329.548 0 344.163 0 360.357V449.643C0 465.837 11.3906 480.451 32.073 490.793C50.3965 499.955 74.5191 505 100 505C125.481 505 149.604 499.955 167.927 490.793C188.609 480.452 200 465.837 200 449.643V360.357C200 344.163 188.609 329.548 167.927 319.207Z" fill="#57565C"/>
<path d="M173.857 349.643C163.112 337.28 135.002 326.428 100 326.428C64.9986 326.428 36.8881 337.28 26.1432 349.643C23.0838 353.164 21.4287 356.807 21.4287 360.357C21.4287 363.907 23.083 367.551 26.1432 371.072C36.8881 383.435 64.999 394.286 100 394.286C135.001 394.286 163.112 383.435 173.857 371.072C176.917 367.551 178.572 363.907 178.572 360.357C178.572 356.807 176.917 353.164 173.857 349.643Z" fill="#DEDEE0"/>
<path d="M123.951 349.643C118.066 346.356 109.518 344.286 99.9999 344.286C90.4819 344.286 81.9343 346.356 76.0491 349.643C70.9569 352.487 67.8569 356.24 67.8569 360.357C67.8569 364.475 70.9569 368.228 76.0476 371.072C81.9331 374.359 90.4811 376.429 99.9995 376.429C109.518 376.429 118.066 374.359 123.952 371.072C129.042 368.228 132.142 364.475 132.142 360.357C132.143 356.24 129.043 352.486 123.951 349.643Z" fill="#E07188"/>
<path d="M67.8569 360.357C67.8569 364.474 70.9569 368.228 76.0476 371.072C81.9331 374.359 90.4811 376.429 99.9995 376.429V344.286C90.4815 344.286 81.9339 346.356 76.0487 349.643C70.9569 352.486 67.8569 356.24 67.8569 360.357Z" fill="#FF3F62"/>
<path d="M76.0479 371.071C70.9572 368.228 67.8572 364.474 67.8572 360.357C67.8572 356.24 70.9572 352.486 76.0494 349.643C81.9346 346.355 90.4822 344.285 100 344.285V326.428C64.9986 326.428 36.8881 337.28 26.1432 349.643C23.0838 353.164 21.4287 356.807 21.4287 360.357C21.4287 363.907 23.083 367.551 26.1432 371.072C36.8881 383.435 64.999 394.286 100 394.286V376.43C90.4811 376.429 81.9334 374.359 76.0479 371.071Z" fill="#D6D5D8"/>
<path d="M32.073 490.793C50.3965 499.954 74.5191 505 100 505V394.286C64.9984 394.286 36.8879 383.434 26.143 371.071C23.0836 367.55 21.4285 363.907 21.4285 360.357C21.4285 356.807 23.0828 353.163 26.143 349.642C36.8879 337.28 64.9984 326.429 100 326.429V305C74.5191 305 50.3965 310.045 32.073 319.207C11.3906 329.548 0 344.163 0 360.357V449.643C0 465.837 11.3906 480.452 32.073 490.793Z" fill="#3E3D42"/>
</g>
<g clip-path="url(#clip6_39_59)">
<path d="M267.927 171.207C249.604 162.045 225.481 157 200 157C174.519 157 150.396 162.045 132.073 171.207C111.391 181.548 100 196.163 100 212.357V301.643C100 317.837 111.391 332.451 132.073 342.793C150.396 351.955 174.519 357 200 357C225.481 357 249.604 351.955 267.927 342.793C288.609 332.452 300 317.837 300 301.643V212.357C300 196.163 288.609 181.548 267.927 171.207Z" fill="#57565C"/>
<path d="M273.857 201.643C263.112 189.28 235.002 178.428 200 178.428C164.999 178.428 136.888 189.28 126.143 201.643C123.084 205.164 121.429 208.807 121.429 212.357C121.429 215.907 123.083 219.551 126.143 223.072C136.888 235.435 164.999 246.286 200 246.286C235.001 246.286 263.112 235.435 273.857 223.072C276.917 219.551 278.572 215.907 278.572 212.357C278.572 208.807 276.917 205.164 273.857 201.643Z" fill="#DEDEE0"/>
<path d="M223.951 201.643C218.066 198.356 209.518 196.286 200 196.286C190.482 196.286 181.934 198.356 176.049 201.643C170.957 204.487 167.857 208.24 167.857 212.357C167.857 216.475 170.957 220.228 176.048 223.072C181.933 226.359 190.481 228.429 200 228.429C209.518 228.429 218.066 226.359 223.952 223.072C229.042 220.228 232.142 216.475 232.142 212.357C232.143 208.24 229.043 204.486 223.951 201.643Z" fill="#E07188"/>
<path d="M167.857 212.357C167.857 216.474 170.957 220.228 176.048 223.072C181.933 226.359 190.481 228.429 200 228.429V196.286C190.482 196.286 181.934 198.356 176.049 201.643C170.957 204.486 167.857 208.24 167.857 212.357Z" fill="#FF3F62"/>
<path d="M176.048 223.071C170.957 220.228 167.857 216.474 167.857 212.357C167.857 208.24 170.957 204.486 176.049 201.643C181.935 198.355 190.482 196.285 200 196.285V178.428C164.999 178.428 136.888 189.28 126.143 201.643C123.084 205.164 121.429 208.807 121.429 212.357C121.429 215.907 123.083 219.551 126.143 223.072C136.888 235.435 164.999 246.286 200 246.286V228.43C190.481 228.429 181.933 226.359 176.048 223.071Z" fill="#D6D5D8"/>
<path d="M132.073 342.793C150.396 351.954 174.519 357 200 357V246.286C164.998 246.286 136.888 235.434 126.143 223.071C123.084 219.55 121.429 215.907 121.429 212.357C121.429 208.807 123.083 205.163 126.143 201.642C136.888 189.28 164.998 178.429 200 178.429V157C174.519 157 150.396 162.045 132.073 171.207C111.391 181.548 100 196.163 100 212.357V301.643C100 317.837 111.391 332.452 132.073 342.793Z" fill="#3E3D42"/>
</g>
<defs>
<clipPath id="clip0_39_59">
<rect width="200" height="200" fill="white" transform="translate(42)"/>
</clipPath>
<clipPath id="clip1_39_59">
<rect width="200" height="200" fill="white" transform="translate(100 447)"/>
</clipPath>
<clipPath id="clip2_39_59">
<rect width="200" height="200" fill="white" transform="translate(100 737)"/>
</clipPath>
<clipPath id="clip3_39_59">
<rect width="200" height="200" fill="white" transform="translate(0 915)"/>
</clipPath>
<clipPath id="clip4_39_59">
<rect width="200" height="200" fill="white" transform="translate(0 610)"/>
</clipPath>
<clipPath id="clip5_39_59">
<rect width="200" height="200" fill="white" transform="translate(0 305)"/>
</clipPath>
<clipPath id="clip6_39_59">
<rect width="200" height="200" fill="white" transform="translate(100 157)"/>
</clipPath>
</defs>
</svg>
