<svg width="28" height="28" viewBox="0 0 28 28" fill="none" xmlns="http://www.w3.org/2000/svg">
<path d="M18.4389 15.8363C18.1584 15.5556 17.7029 15.5556 17.4218 15.8363L16.5451 16.7134C16.2892 16.9693 15.8822 16.995 15.5962 16.7736C15.5962 16.7736 14.7577 16.2208 13.3867 14.8498C12.0157 13.4788 11.463 12.6397 11.463 12.6397C11.2413 12.3539 11.2674 11.9475 11.5233 11.6912L12.4 10.8145C12.6812 10.5337 12.6812 10.0783 12.4 9.79765L10.4674 7.86483C10.1866 7.58412 9.73164 7.58412 9.4505 7.86483C9.44382 7.87167 9.34626 7.96906 8.28516 9.03077C7.04911 10.2664 8.684 14.0522 11.4337 16.8028C14.1839 19.5526 17.9704 21.1868 19.206 19.9516C20.2666 18.8904 20.3645 18.7921 20.3711 18.7857C20.6522 18.505 20.6522 18.0496 20.3711 17.7693L18.4389 15.8363Z" fill="#9831C0"/>
<path d="M14 0C6.26795 0 0 6.26812 0 14C0 21.7319 6.26795 28 14 28C21.732 28 28 21.7319 28 14C28 6.26812 21.732 0 14 0ZM14 25.8125C7.48661 25.8125 2.1875 20.5134 2.1875 14C2.1875 7.48661 7.48661 2.1875 14 2.1875C20.5134 2.1875 25.8125 7.48661 25.8125 14C25.8125 20.5134 20.5134 25.8125 14 25.8125Z" fill="#9831C0"/>
</svg>
