<svg width="30" height="30" viewBox="0 0 30 30" fill="none" xmlns="http://www.w3.org/2000/svg">
<g clip-path="url(#clip0_30_2292)">
<path d="M18.7853 13.2046H17.0038L17.4844 8.94521L18.0099 4.29395L15.2361 8.06456L10.1428 14.986L8.6781 16.9771H11.1493H12.9719L12.6103 21.2603L12.2272 25.8016L14.8732 22.0915L19.8022 15.1801L21.212 13.2046H18.7853Z" fill="#9831C0"/>
<path d="M15.0018 0.00195312C6.74063 0.00195312 0.0397925 6.68082 0.00363348 14.9333C0.0013479 14.9552 0 14.9772 0 15.0001C0 15.3453 0.28013 15.6254 0.625193 15.6254C0.970256 15.6254 1.24998 15.3453 1.24998 15.0001H1.2532C1.2532 13.1437 1.61661 11.3431 2.3334 9.64867C3.02546 8.01184 4.01687 6.54169 5.28009 5.27847C6.5429 4.01519 8.01352 3.02378 9.65029 2.33178C11.3447 1.61498 13.1449 1.25152 15.0018 1.25152C16.8583 1.25152 18.658 1.61493 20.3533 2.33178C21.9901 3.02384 23.4602 4.01525 24.7235 5.27847C25.1886 5.74437 25.6169 6.23782 26.0069 6.75776L27.196 6.26713C24.4746 2.4736 20.0266 0.00195312 15.0018 0.00195312Z" fill="#9831C0"/>
<path d="M29.3747 14.375C29.0296 14.375 28.7495 14.6551 28.7495 15.0003C28.7495 16.8567 28.387 18.6573 27.6702 20.3509C26.9773 21.9885 25.9868 23.4587 24.7235 24.722C23.4602 25.9844 21.9901 26.9767 20.3524 27.6687C18.658 28.3855 16.8583 28.7489 15.0018 28.7489C13.1449 28.7489 11.3447 28.3855 9.65029 27.6687C8.01352 26.9766 6.5429 25.9844 5.28009 24.722C4.81049 24.2524 4.37887 23.7544 3.98569 23.2289L2.79749 23.7196C5.51808 27.5213 9.97021 29.9984 15.0018 29.9984C23.2845 29.9984 30 23.2839 30 15.0003C30 14.6551 29.7199 14.375 29.3747 14.375Z" fill="#9831C0"/>
<path d="M18.0099 4.29395L8.6781 16.9771H12.9719L12.2272 25.8016L14.6471 15.6543L11.1204 15.5957L18.0099 4.29395Z" fill="#9831C0"/>
<path d="M27.3526 7.26054C27.4175 7.17726 27.4615 7.07746 27.4771 6.96763C27.4816 6.93833 27.4844 6.90809 27.4844 6.87791V2.5022C27.4844 2.15708 27.2042 1.87695 26.86 1.87695C26.514 1.87695 26.2348 2.15708 26.2348 2.5022V6.25266H22.5009C22.1557 6.25266 21.8756 6.53273 21.8756 6.87785C21.8756 7.22297 22.1557 7.50217 22.5009 7.50217H26.86C26.8903 7.50217 26.9205 7.49941 26.9498 7.49484C27.0596 7.47925 27.1594 7.4353 27.2427 7.37036C27.2482 7.36673 27.2527 7.36304 27.2573 7.35935C27.2646 7.35384 27.2702 7.34745 27.2775 7.34106C27.2848 7.33374 27.2939 7.32735 27.3013 7.31908C27.3095 7.31176 27.3159 7.3035 27.3233 7.29529C27.3296 7.28797 27.3361 7.28246 27.3415 7.27513C27.3452 7.27062 27.3489 7.26599 27.3526 7.26054Z" fill="#9831C0"/>
<path d="M7.5027 22.4805H3.14352C3.11879 22.4805 3.09459 22.4823 3.07073 22.485C2.82495 22.5134 2.62311 22.6846 2.54939 22.9126C2.54845 22.9153 2.54757 22.9171 2.54663 22.9199C2.543 22.9318 2.54025 22.9437 2.53702 22.9565C2.53521 22.9638 2.53292 22.9712 2.5311 22.9794C2.52284 23.0197 2.51874 23.0628 2.51874 23.1057V27.4988C2.51874 27.844 2.7984 28.124 3.14352 28.124C3.48864 28.124 3.7683 27.844 3.7683 27.4988V23.73H7.50276C7.84788 23.73 8.12754 23.4508 8.12754 23.1057C8.12754 22.7607 7.84782 22.4805 7.5027 22.4805Z" fill="#9831C0"/>
</g>
<defs>
<clipPath id="clip0_30_2292">
<rect width="30" height="30" fill="white"/>
</clipPath>
</defs>
</svg>
