<svg width="470" height="405" viewBox="0 0 470 405" fill="none" xmlns="http://www.w3.org/2000/svg">
<path d="M387.5 397.492H447.5V367.492L417.5 347.492L387.5 367.492V397.492Z" fill="#FDA162"/>
<path d="M447.5 307.492H387.5V367.492H447.5V307.492Z" fill="#FD7555"/>
<path d="M22.5 397.492H82.5V367.492L52.5 347.492L22.5 367.492V397.492Z" fill="#FDA162"/>
<path d="M82.5 307.492H22.5V367.492H82.5V307.492Z" fill="#FD7555"/>
<path d="M432.5 257.492L402.5 297.492L432.5 337.492H462.5V257.492H432.5Z" fill="#FD7555"/>
<path d="M432.5 257.492H7.5V337.492H432.5V257.492Z" fill="#FDA162"/>
<path d="M127.5 17.4912H112.5L82.5 122.491L112.5 227.491H127.5C177 227.491 217.5 186.991 217.5 137.491V107.491C217.5 57.9912 177 17.4912 127.5 17.4912Z" fill="#3F4C53"/>
<path d="M97.5 17.4912C48 17.4912 7.5 57.9912 7.5 107.491V137.491C7.5 186.991 48 227.491 97.5 227.491H112.5V17.4912H97.5Z" fill="#496A7E"/>
<path d="M127.5 47.4912H97.5C64.416 47.4912 37.5 74.4072 37.5 107.491V137.491C37.5 170.575 64.416 197.491 97.5 197.491H127.5C160.584 197.491 187.5 170.575 187.5 137.491V107.491C187.5 74.4072 160.584 47.4912 127.5 47.4912Z" fill="white"/>
<path d="M112.5 87.4912C128.367 87.4912 141.76 98.0532 146.053 112.528L102.537 156.044C88.062 151.752 77.5 138.359 77.5 122.491C77.5 103.162 93.17 87.4912 112.5 87.4912Z" fill="#C1D560"/>
<path d="M146.053 112.527C146.99 115.686 147.5 119.028 147.5 122.49C147.5 141.82 131.83 157.49 112.5 157.49C109.037 157.49 105.695 156.979 102.537 156.043C103.287 132.343 122.353 113.278 146.053 112.527Z" fill="#FD7555"/>
<path d="M7.5 287.492C235 287.492 235 307.492 462.5 307.492" stroke="#FEFDCA" stroke-width="15" stroke-miterlimit="10" stroke-linecap="round" stroke-linejoin="round"/>
<path d="M462.5 154.991C462.5 138.422 449.069 124.991 432.5 124.991L422.5 64.9912L362.5 44.9912L402.5 227.491H432.5C449.069 227.491 462.5 214.06 462.5 197.491C462.5 189.187 459.126 181.673 453.675 176.241C459.126 170.81 462.5 163.295 462.5 154.991Z" fill="#FDCE6E"/>
<path d="M432.5 197.492C432.5 189.188 429.126 181.674 423.675 176.242C429.126 170.81 432.5 163.295 432.5 154.992C432.5 138.423 419.069 124.992 402.5 124.992V44.9922L292.5 54.9922L282.5 124.992C265.931 124.992 252.5 138.423 252.5 154.992C252.5 163.296 255.874 170.81 261.325 176.242C255.874 181.674 252.5 189.189 252.5 197.492C252.5 214.061 265.931 227.492 282.5 227.492H402.5C419.069 227.492 432.5 214.06 432.5 197.492Z" fill="white"/>
<path d="M357.5 17.4912V57.4912C393.341 57.4912 422.5 86.6502 422.5 122.491C422.5 133.537 431.454 142.491 442.5 142.491C453.546 142.491 462.5 133.537 462.5 122.491C462.5 64.5942 415.397 17.4912 357.5 17.4912Z" fill="#FD7555"/>
<path d="M252.5 122.491C252.5 133.537 261.454 142.491 272.5 142.491C283.546 142.491 292.5 133.537 292.5 122.491C292.5 86.6502 321.659 57.4912 357.5 57.4912V17.4912C299.603 17.4912 252.5 64.5942 252.5 122.491Z" fill="#FDA162"/>
<path d="M377.5 9.23621C371.003 8.09221 364.32 7.49121 357.5 7.49121C350.68 7.49121 343.997 8.09121 337.5 9.23621V227.492H377.5V9.23621Z" fill="#3F4C53"/>
<path d="M462.5 249.992H7.5C3.358 249.992 0 253.349 0 257.492V337.492C0 341.635 3.358 344.992 7.5 344.992H15V397.492C15 401.635 18.358 404.992 22.5 404.992H82.5C86.642 404.992 90 401.635 90 397.492V367.492C90 363.349 86.642 359.992 82.5 359.992C78.358 359.992 75 363.349 75 367.492V389.992H30V344.992H440V389.992H395V367.492C395 363.349 391.643 359.992 387.5 359.992C383.357 359.992 380 363.349 380 367.492V397.492C380 401.635 383.357 404.992 387.5 404.992H447.5C451.643 404.992 455 401.635 455 397.492V344.992H462.5C466.643 344.992 470 341.635 470 337.492V257.492C470 253.349 466.643 249.992 462.5 249.992ZM455 264.992V299.984C346.517 299.765 290.175 294.814 235.657 290.022C180.817 285.201 124.142 280.22 15 280.001V264.993H455V264.992ZM15 329.992V295C123.483 295.219 179.826 300.17 234.343 304.962C289.183 309.783 345.858 314.764 455 314.983V329.991H15V329.992Z" fill="black"/>
<path d="M100.559 163.272C100.643 163.295 100.724 163.323 100.808 163.343C104.525 164.408 108.444 164.991 112.499 164.991C135.934 164.991 154.999 145.926 154.999 122.491C154.999 118.435 154.416 114.514 153.35 110.796C153.334 110.728 153.311 110.663 153.293 110.596C148.134 92.9342 131.805 79.9902 112.499 79.9902C107.612 79.9902 102.808 80.8202 98.222 82.4572C94.321 83.8492 92.286 88.1402 93.679 92.0412C95.071 95.9422 99.364 97.9792 103.263 96.5842C106.227 95.5262 109.335 94.9902 112.499 94.9902C121.723 94.9902 129.895 99.5602 134.887 106.55C116.067 111.214 101.223 126.058 96.56 144.878C89.57 139.888 85 131.716 85 122.492C85 119.328 85.536 116.221 86.594 113.256C87.986 109.355 85.951 105.064 82.05 103.672C78.149 102.279 73.858 104.315 72.466 108.215C70.83 112.802 70 117.605 70 122.492C70 141.781 82.921 158.099 100.559 163.272ZM139.941 120.781C139.976 121.347 140 121.917 140 122.492C140 137.655 127.664 149.992 112.5 149.992C111.925 149.992 111.356 149.968 110.789 149.933C113.794 135.32 125.329 123.785 139.941 120.781Z" fill="black"/>
<path d="M97.5 234.992H127.5C181.262 234.992 225 191.254 225 137.492V107.492C225 53.7302 181.262 9.99219 127.5 9.99219H97.5C43.738 9.99219 0 53.7302 0 107.492V137.492C0 191.253 43.738 234.992 97.5 234.992ZM15 107.492C15 62.0022 52.009 24.9922 97.5 24.9922H127.5C172.991 24.9922 210 62.0022 210 107.492V137.492C210 182.982 172.991 219.992 127.5 219.992H97.5C52.009 219.992 15 182.982 15 137.492V107.492Z" fill="black"/>
<path d="M97.5 204.991H127.5C164.72 204.991 195 174.711 195 137.491V107.491C195 70.2712 164.72 39.9912 127.5 39.9912H97.5C60.28 39.9912 30 70.2712 30 107.491V137.491C30 174.71 60.28 204.991 97.5 204.991ZM45 107.491C45 78.5432 68.551 54.9912 97.5 54.9912H127.5C156.449 54.9912 180 78.5432 180 107.491V137.491C180 166.439 156.449 189.991 127.5 189.991H97.5C68.551 189.991 45 166.439 45 137.491V107.491Z" fill="black"/>
<path d="M465.609 137.37C468.382 133.077 470 127.971 470 122.492C470 110.524 468.099 98.9217 464.568 87.9977C464.542 87.9067 464.524 87.8158 464.495 87.7258C464.461 87.6198 464.416 87.5207 464.377 87.4177C457.019 65.0737 442.815 45.6198 424.022 31.7958C423.892 31.6878 423.765 31.5777 423.626 31.4767C423.516 31.3967 423.401 31.3298 423.288 31.2568C411.991 23.0868 399.066 16.9447 385 13.4057V9.23575C385 5.59475 382.386 2.48075 378.8 1.84875C364.794 -0.61625 350.206 -0.61625 336.2 1.84875C332.614 2.48075 330 5.59475 330 9.23575V13.4057C315.933 16.9447 303.009 23.0878 291.712 31.2568C291.599 31.3298 291.484 31.3967 291.374 31.4767C291.235 31.5777 291.108 31.6878 290.978 31.7958C272.185 45.6198 257.98 65.0747 250.623 87.4187C250.585 87.5217 250.54 87.6208 250.506 87.7258C250.477 87.8158 250.458 87.9067 250.433 87.9977C246.902 98.9207 245.001 110.524 245.001 122.492C245.001 127.972 246.619 133.078 249.392 137.37C246.507 142.761 245.001 148.755 245.001 154.992C245.001 162.694 247.306 170.039 251.591 176.242C247.306 182.445 245.001 189.79 245.001 197.492C245.001 218.17 261.823 234.992 282.501 234.992H377.501C381.644 234.992 385.001 231.635 385.001 227.492V72.0078C403.289 81.9398 415.001 101.109 415.001 122.491C415.001 137.654 427.338 149.991 442.501 149.991C446.506 149.991 450.31 149.123 453.746 147.577C454.569 149.934 455.001 152.427 455.001 154.991C455.001 161.015 452.65 166.676 448.382 170.929C446.97 172.336 446.176 174.247 446.176 176.242C446.176 178.237 446.97 180.147 448.382 181.555C452.651 185.808 455.001 191.468 455.001 197.493C455.001 209.899 444.907 219.993 432.501 219.993H407.501C403.358 219.993 400.001 223.35 400.001 227.493C400.001 231.636 403.358 234.993 407.501 234.993H432.501C453.179 234.993 470.001 218.171 470.001 197.493C470.001 189.791 467.696 182.446 463.411 176.243C467.696 170.04 470.001 162.695 470.001 154.993C470 148.755 468.494 142.761 465.609 137.37ZM370 15.7168V19.4737C370 19.5117 370 60.5358 370 60.5358C370 60.5608 370 60.5867 370 60.6117V219.991H345V60.6117C345 60.5867 345 60.5608 345 60.5358V19.5127C345 19.4747 345 15.7168 345 15.7168C353.291 14.7518 361.709 14.7518 370 15.7168ZM294.314 48.2828L295.593 50.0427C297.06 52.0627 299.347 53.1357 301.666 53.1357C303.194 53.1357 304.737 52.6698 306.068 51.7018C309.42 49.2668 310.162 44.5778 307.727 41.2258L306.44 39.4538C313.69 34.9828 321.588 31.4217 330 28.9517V55.4228C302.87 66.5278 285 92.8217 285 122.491C285 129.384 279.393 134.991 272.5 134.991C269.1 134.991 266.016 133.622 263.76 131.412C263.731 131.385 263.701 131.359 263.672 131.332C261.405 129.068 260 125.941 260 122.491C260 114.635 260.964 106.967 262.751 99.5908L264.831 100.267C265.602 100.517 266.383 100.636 267.151 100.636C270.312 100.636 273.252 98.6208 274.282 95.4518C275.562 91.5128 273.407 87.2807 269.468 86.0007L267.381 85.3228C273.313 70.9908 282.586 58.2928 294.314 48.2828ZM260 197.492C260 191.468 262.351 185.807 266.619 181.554C268.031 180.147 268.825 178.236 268.825 176.241C268.825 174.246 268.031 172.336 266.619 170.928C262.35 166.675 260 161.015 260 154.99C260 152.426 260.432 149.933 261.255 147.576C264.691 149.122 268.495 149.99 272.5 149.99C287.663 149.99 300 137.653 300 122.49C300 101.107 311.712 81.9388 330 72.0068V219.99H282.5C270.094 219.992 260 209.898 260 197.492ZM430 122.492C430 92.8228 412.13 66.5288 385 55.4238V28.9527C393.412 31.4227 401.31 34.9848 408.56 39.4548L407.273 41.2268C404.838 44.5788 405.581 49.2678 408.932 51.7028C410.263 52.6708 411.805 53.1367 413.334 53.1367C415.652 53.1367 417.94 52.0637 419.407 50.0437L420.686 48.2838C432.413 58.2938 441.687 70.9918 447.619 85.3248L445.532 86.0028C441.593 87.2828 439.437 91.5148 440.718 95.4538C441.748 98.6228 444.688 100.638 447.849 100.638C448.618 100.638 449.399 100.519 450.169 100.269L452.249 99.5928C454.036 106.968 455 114.636 455 122.493C455 125.943 453.595 129.07 451.328 131.334C451.299 131.361 451.269 131.387 451.24 131.414C448.984 133.624 445.901 134.993 442.5 134.993C435.607 134.992 430 129.384 430 122.492Z" fill="black"/>
</svg>
