<svg width="28" height="28" viewBox="0 0 28 28" fill="none" xmlns="http://www.w3.org/2000/svg">
<g clip-path="url(#clip0_30_2264)">
<path d="M20.125 0H7.875C3.5 0 0 3.5 0 7.875V20.125C0 24.5 3.5 28 7.875 28H20.125C24.5 28 28 24.5 28 20.125V7.875C28 3.5 24.5 0 20.125 0Z" fill="#9831C0"/>
<path d="M10.5 21.875C10.5 22.4 10.15 22.75 9.625 22.75H6.125C5.6 22.75 5.25 22.4 5.25 21.875V11.375C5.25 10.85 5.6 10.5 6.125 10.5H9.625C10.15 10.5 10.5 10.85 10.5 11.375V21.875ZM7.875 9.625C6.3875 9.625 5.25 8.4875 5.25 7C5.25 5.5125 6.3875 4.375 7.875 4.375C9.3625 4.375 10.5 5.5125 10.5 7C10.5 8.4875 9.3625 9.625 7.875 9.625ZM22.75 21.875C22.75 22.4 22.4 22.75 21.875 22.75H19.25C18.725 22.75 18.375 22.4 18.375 21.875V18.8125V17.9375V16.1875C18.375 15.4875 17.7625 14.875 17.0625 14.875C16.3625 14.875 15.75 15.4875 15.75 16.1875V17.9375V18.8125V21.875C15.75 22.4 15.4 22.75 14.875 22.75H12.25C11.725 22.75 11.375 22.4 11.375 21.875V11.375C11.375 10.85 11.725 10.5 12.25 10.5H15.75C16.0125 10.5 16.1875 10.5875 16.3625 10.7625C16.8875 10.5875 17.4125 10.5 17.9375 10.5C20.5625 10.5 22.75 12.6875 22.75 15.3125V21.875Z" fill="white"/>
</g>
<defs>
<clipPath id="clip0_30_2264">
<rect width="28" height="28" fill="white"/>
</clipPath>
</defs>
</svg>
