<svg width="28" height="28" viewBox="0 0 28 28" fill="none" xmlns="http://www.w3.org/2000/svg">
<path d="M14 0C6.26768 0 0 6.26768 0 14C0 21.7323 6.26768 28 14 28C21.7323 28 28 21.7323 28 14C28 6.26768 21.7323 0 14 0ZM14 25.8125C7.47595 25.8125 2.1875 20.5241 2.1875 14C2.1875 7.47595 7.47595 2.1875 14 2.1875C20.5241 2.1875 25.8125 7.47595 25.8125 14C25.8125 20.5241 20.5241 25.8125 14 25.8125Z" fill="#9831C0"/>
<path d="M7 13.3643L12.7268 15.2724L14.6357 21L21 7L7 13.3643ZM13.5224 14.4768L9.22682 13.0455L19.7268 8.27318L13.5224 14.4768Z" fill="#9831C0"/>
</svg>
