<svg width="30" height="30" viewBox="0 0 30 30" fill="none" xmlns="http://www.w3.org/2000/svg">
<path d="M24.4355 3.83153C25.1152 2.36332 25.4311 0.116446 25.4311 0.116446C24.5199 -0.571095 22.1902 1.92875 22.002 3.86846C20.59 4.01485 19.2397 4.23654 17.9656 4.50583L19.9527 6.16702C21.3331 5.43488 22.8242 4.65779 24.4355 3.83153Z" fill="#9831C0"/>
<path d="M11.2787 11.7151L14.1737 17.5563C14.3972 17.4237 14.5833 17.2988 14.7146 17.1999C15.4649 16.6394 16.157 16.0952 16.7962 15.569L14.221 10.0088C13.1407 10.6196 12.1635 11.1879 11.2787 11.7151Z" fill="#9831C0"/>
<path d="M13.7923 9.53634L9.53023 7.24902C8.29361 7.80142 7.40521 8.27343 6.94366 8.5304L10.8203 11.2657C11.7121 10.7317 12.699 10.1573 13.7923 9.53634Z" fill="#9831C0"/>
<path d="M18.2319 7.08636L15.2944 5.16504C14.1418 5.49066 13.078 5.84435 12.1195 6.1971L15.5033 8.57654C16.355 8.10504 17.2635 7.60797 18.2319 7.08636Z" fill="#9831C0"/>
<path d="M20.5414 12.1292L18.7731 7.50391C17.7183 8.07012 16.7348 8.60762 15.8159 9.1165L18.3593 14.2291C19.1986 13.4782 19.9213 12.7748 20.5414 12.1292Z" fill="#9831C0"/>
<path d="M29.4311 17.4815C28.8817 16.2861 27.9803 15.2352 26.824 14.3336C25.719 13.4725 24.3745 12.7482 22.8548 12.183C22.8548 11.8447 22.8548 11.5027 22.8548 11.172C22.8548 10.5136 22.8548 9.90037 22.8548 9.45142C22.8548 9.4361 22.8548 9.42171 22.8548 9.40789C23.7329 8.2074 24.0257 7.52551 24.0257 7.52551C24.0257 7.52551 28.8275 6.91628 29.5594 4.51229C29.6897 4.0853 27.632 3.31129 24.9061 4.29368C23.2842 5.12453 21.7819 5.90627 20.3919 6.64141L21.9929 10.509C22.0373 10.4553 22.0813 10.4026 22.1241 10.3503C22.1241 11.8032 22.1241 13.8289 22.1241 14.6992C22.1241 15.3847 22.0656 16.0701 21.8491 16.7275C21.7406 17.0556 21.5929 17.3786 21.3882 17.697C21.1839 18.0144 20.9226 18.3272 20.5853 18.6313C20.5702 18.6446 20.543 18.6682 20.5073 18.6953C20.4393 18.7491 20.3416 18.8223 20.2199 18.9098C19.7931 19.2174 19.0727 19.7064 18.195 20.2879C17.3163 20.8705 16.2779 21.5473 15.2074 22.2373C15.0501 22.3387 14.8483 22.439 14.6201 22.5312C14.2774 22.6683 13.8746 22.7846 13.4621 22.8649C13.0499 22.9453 12.6267 22.9904 12.2427 22.9904C11.8563 22.9909 11.5089 22.9433 11.2628 22.8537C10.8819 22.7175 10.4228 22.546 9.95027 22.3171C9.59555 22.1461 9.23391 21.9419 8.89365 21.6977C8.38277 21.3307 7.92311 20.875 7.59627 20.3098C7.43244 20.0268 7.30067 19.7171 7.20932 19.371C7.1175 19.0244 7.06553 18.6415 7.06553 18.2104C7.06553 17.1702 7.06553 16.4812 7.06553 16.0521C7.06553 15.9625 7.06553 15.8842 7.06553 15.8162C8.21537 16.9265 9.64143 17.9601 10.9612 18.3415C11.3643 18.4572 11.8155 18.4388 12.2638 18.3435L9.65859 12.697C8.25229 13.5673 7.13133 14.3095 6.23145 14.9454C6.2652 14.9832 6.29994 15.0217 6.33434 15.0605C6.33434 15.485 6.33434 16.7771 6.33434 18.2105C6.33434 18.6723 6.38484 19.1023 6.47725 19.4985C6.63961 20.1932 6.93047 20.7804 7.29024 21.2687C7.83076 22.0003 8.52182 22.5133 9.19998 22.8962C9.87803 23.2776 10.5492 23.5274 11.0566 23.7097C11.4048 23.8346 11.8092 23.8827 12.2428 23.8832C12.816 23.8827 13.4385 23.7956 14.0195 23.6467C14.3099 23.5725 14.59 23.4833 14.848 23.3789C15.1059 23.2755 15.3422 23.1593 15.5482 23.0262C16.8558 22.1841 18.1151 21.3604 19.0982 20.703C19.5904 20.3733 20.0126 20.0861 20.3388 19.8573C20.502 19.7432 20.6411 19.6438 20.7538 19.5599C20.8104 19.5184 20.8601 19.48 20.9037 19.4457C20.9479 19.4103 20.9845 19.3796 21.0185 19.35C21.404 19.0029 21.7156 18.6338 21.963 18.2483C22.3349 17.6708 22.561 17.059 22.6903 16.456C22.8197 15.8525 22.855 15.2586 22.855 14.6991C22.855 14.4098 22.855 13.9895 22.855 13.5083C24.6696 14.2224 26.1768 15.1731 27.2265 16.2528C27.8003 16.8415 28.238 17.465 28.5289 18.0988C28.8193 18.7345 28.9651 19.3756 28.9657 20.0355C28.9651 21.0598 28.66 22.099 28.0426 23.1096C27.5803 23.8663 26.9425 24.6009 26.1411 25.2736C24.9393 26.2831 23.3706 27.1519 21.4941 27.7646C19.6174 28.3774 17.4331 28.7363 15.0001 28.7358C10.6751 28.7378 7.13525 27.5998 4.71404 25.9243C3.5032 25.0878 2.57373 24.1192 1.9575 23.1096C1.34027 22.0991 1.03518 21.0599 1.03453 20.0355C1.03518 19.4431 1.15254 18.8677 1.38592 18.2964C1.7352 17.4414 2.35395 16.6003 3.2117 15.833C3.88049 15.234 4.69617 14.6842 5.62436 14.1994C5.69244 14.29 5.76164 14.3811 5.83641 14.4749C6.496 14.0054 7.27248 13.4802 8.19481 12.8878C8.47471 12.7092 8.7685 12.5228 9.07582 12.3314L4.99254 10.1322C4.501 10.9646 4.40901 12.0248 4.97033 13.169C3.66709 13.8801 2.56166 14.7304 1.72061 15.7077C1.1867 16.3308 0.758028 17.0055 0.460723 17.7314C0.163477 18.4562 -0.000409388 19.2344 7.68006e-07 20.0355C-0.000409388 21.3743 0.405001 22.6848 1.12852 23.8663C1.6718 24.754 2.39402 25.5772 3.27316 26.3154C4.59234 27.4222 6.26602 28.3406 8.23887 28.9856C10.2115 29.6296 12.4838 29.9993 14.9999 29.9998C19.4731 29.9983 23.1747 28.8336 25.7955 27.0244C27.1054 26.1188 28.147 25.0499 28.8715 23.8663C29.5949 22.6848 30.0004 21.3742 30 20.0355C30.0004 19.1417 29.7966 18.2771 29.4311 17.4815Z" fill="#9831C0"/>
</svg>
