<svg width="30" height="30" viewBox="0 0 30 30" fill="none" xmlns="http://www.w3.org/2000/svg">
<g clip-path="url(#clip0_30_2302)">
<path d="M15 0C6.71572 0 0 6.71572 0 15C0 23.2843 6.71572 30 15 30C23.2843 30 30 23.2843 30 15C30 6.71572 23.2843 0 15 0ZM15 5.27344C17.1691 5.27344 18.9276 7.35164 18.9276 9.91518C18.9276 12.4787 17.1691 14.5569 15 14.5569C12.8309 14.5569 11.0724 12.4787 11.0724 9.91518C11.0724 7.35164 12.8309 5.27344 15 5.27344ZM21.648 23.5547H8.35195C7.68527 23.5547 7.1448 23.0142 7.1448 22.3475C7.1448 19.2281 10.6617 16.6992 15 16.6992C19.3383 16.6992 22.8552 19.2281 22.8552 22.3475C22.8552 23.0142 22.3148 23.5547 21.648 23.5547Z" fill="#9831C0"/>
</g>
<defs>
<clipPath id="clip0_30_2302">
<rect width="30" height="30" fill="white"/>
</clipPath>
</defs>
</svg>
