<svg width="30" height="30" viewBox="0 0 30 30" fill="none" xmlns="http://www.w3.org/2000/svg">
<g clip-path="url(#clip0_30_2282)">
<path d="M18.7067 19.4781C19.2686 18.5389 20.0949 18.0577 21.1906 18.0449C22.2863 18.0321 22.8393 17.474 22.8573 16.3757C22.8727 15.2825 23.3487 14.4563 24.2879 13.8969C25.2296 13.3349 25.4336 12.5792 24.8973 11.622C24.3636 10.6674 24.3636 9.71286 24.8973 8.75572C25.4336 7.80114 25.2309 7.04671 24.2879 6.48474C23.3487 5.92149 22.8714 5.09649 22.8573 3.99821C22.8393 2.90506 22.2863 2.34694 21.1906 2.33411C20.0949 2.31871 19.2686 1.84014 18.7067 0.900957C18.1447 -0.0407929 17.389 -0.244796 16.4344 0.291514C15.4798 0.825258 14.5227 0.825258 13.5681 0.291514C12.6122 -0.243513 11.8565 -0.0407929 11.2945 0.900957C10.7339 1.84142 9.90629 2.32 8.81186 2.33411C7.71871 2.34694 7.16316 2.90506 7.14776 3.99821C7.1298 5.09649 6.65379 5.9202 5.71461 6.48474C4.77286 7.04671 4.56629 7.79985 5.10517 8.75572C5.64148 9.71286 5.64148 10.6674 5.10517 11.622C4.56629 12.5792 4.77158 13.3362 5.71461 13.8969C6.65379 14.4563 7.13108 15.2825 7.14776 16.3757C7.16316 17.4727 7.71871 18.0321 8.81186 18.0449C9.90758 18.0577 10.7339 18.5389 11.2958 19.4781C11.8578 20.4198 12.6135 20.6238 13.5681 20.0849C14.5227 19.5563 15.4798 19.5563 16.4344 20.0849C17.389 20.6225 18.146 20.4198 18.7067 19.4781ZM15.0038 16.1845C11.691 16.1845 9.00688 13.5004 9.00688 10.1876C9.00688 6.87735 11.691 4.19323 15.0038 4.19323C18.314 4.19323 20.9982 6.87735 20.9982 10.1876C20.9982 13.5004 18.314 16.1845 15.0038 16.1845Z" fill="#9831C0"/>
<path d="M8.71566 18.924C7.56349 18.924 7.40953 18.3877 7.40953 18.3877L2.90991 27.2317L6.51782 26.8262L8.51294 29.8285C8.51294 29.8285 12.67 21.1552 12.67 21.2129C10.5158 21.1591 11.3728 18.9817 8.71566 18.924Z" fill="#9831C0"/>
<path d="M22.534 18.7344C19.2469 19.0782 19.9153 19.8942 19.1635 20.5281C18.2987 21.4506 17.2184 21.2697 17.2184 21.2697L22.2928 30.0007L23.5412 26.7675L27.0901 27.2307L22.534 18.7344Z" fill="#9831C0"/>
<path d="M16.2561 8.86463L15.0012 6.32422L13.7452 8.86463L10.9366 9.27521L12.9664 11.2549L12.4878 14.0545L15.0012 12.7343L17.5147 14.0545L17.0361 11.2549L19.0659 9.27521L16.2561 8.86463Z" fill="#9831C0"/>
</g>
<defs>
<clipPath id="clip0_30_2282">
<rect width="30" height="30" fill="white"/>
</clipPath>
</defs>
</svg>
