<svg width="30" height="30" viewBox="0 0 30 30" fill="none" xmlns="http://www.w3.org/2000/svg">
<g clip-path="url(#clip0_30_2305)">
<path d="M14.999 1.16156C15.1298 1.16156 15.2161 1.40016 15.2161 1.40016L19.3439 10.1934L29.0606 11.678L22.0298 18.8873L23.6897 29.0597L14.999 24.2531L6.30842 29.0597L7.96827 18.8873L0.937484 11.6775L10.6542 10.193L14.7783 1.40719C14.7783 1.40719 14.8683 1.16156 14.999 1.16156ZM14.999 0C14.6358 0 14.3053 0.21 14.1501 0.539062L10.0181 9.34125L0.795921 10.7508C0.448577 10.8037 0.160296 11.047 0.0482648 11.3803C-0.0632977 11.7131 0.0206086 12.0806 0.266234 12.3323L6.96655 19.2028L5.38311 28.9078C5.32498 29.2622 5.47451 29.6189 5.76842 29.8252C5.92967 29.9391 6.11858 29.9967 6.30795 29.9967C6.46358 29.9967 6.62014 29.9573 6.7617 29.8795L14.9986 25.3237L23.2355 29.8795C23.377 29.9573 23.5336 29.9967 23.6892 29.9967C23.8786 29.9967 24.068 29.9391 24.2287 29.8252C24.5226 29.6189 24.6722 29.2622 24.614 28.9078L23.0306 19.2028L29.7309 12.3323C29.9761 12.0806 30.0605 11.7131 29.9489 11.3803C29.8373 11.047 29.5486 10.8042 29.2012 10.7508L19.979 9.34172L15.848 0.539062C15.6933 0.21 15.3623 0 14.999 0Z" fill="#9831C0"/>
<path d="M14.9991 1.16113C15.1298 1.16113 15.2161 1.39973 15.2161 1.39973L19.3439 10.193L29.0606 11.6775L22.0298 18.8869L23.6897 29.0593L14.9991 24.2527L6.30844 29.0593L7.96828 18.8869L0.9375 11.6771L10.6542 10.1925L14.7783 1.40676C14.7783 1.40676 14.8683 1.16113 14.9991 1.16113Z" fill="#9831C0"/>
</g>
<defs>
<clipPath id="clip0_30_2305">
<rect width="30" height="30" fill="white"/>
</clipPath>
</defs>
</svg>
