<svg width="28" height="28" viewBox="0 0 28 28" fill="none" xmlns="http://www.w3.org/2000/svg">
<path d="M14 28C21.732 28 28 21.732 28 14C28 6.26801 21.732 0 14 0C6.26801 0 0 6.26801 0 14C0 21.732 6.26801 28 14 28Z" fill="#9831C0"/>
<path fill-rule="evenodd" clip-rule="evenodd" d="M22.4 8.61602C21.7824 8.89042 21.1177 9.07522 20.4206 9.15866C21.1323 8.73194 21.6788 8.05665 21.9358 7.252C21.2706 7.64729 20.532 7.93345 19.7475 8.08857C19.1186 7.41888 18.2222 7 17.2316 7C15.3283 7 13.785 8.54329 13.785 10.4466C13.785 10.7164 13.8158 10.9796 13.8746 11.2322C11.0098 11.0888 8.47039 9.71635 6.77037 7.63105C6.47357 8.14009 6.30389 8.73194 6.30389 9.36362C6.30389 10.5592 6.91149 11.6141 7.8371 12.2323C7.2715 12.2144 6.74069 12.0592 6.27533 11.8011V11.8442C6.27533 13.5146 7.46414 14.9072 9.03991 15.2247C8.75095 15.3031 8.44631 15.3457 8.13222 15.3457C7.9099 15.3457 7.69374 15.3238 7.48318 15.2835C7.92166 16.6526 9.19503 17.6494 10.703 17.6774C9.52368 18.6013 8.03758 19.1528 6.42261 19.1528C6.14373 19.1528 5.8694 19.1366 5.60004 19.1041C7.12541 20.0819 8.93687 20.653 10.8833 20.653C17.2226 20.653 20.6894 15.4011 20.6894 10.8469C20.6894 10.6974 20.6866 10.5485 20.6793 10.4012C21.3535 9.91403 21.938 9.30706 22.4 8.61602Z" fill="white"/>
</svg>
