<svg width="28" height="28" viewBox="0 0 28 28" fill="none" xmlns="http://www.w3.org/2000/svg">
<path d="M14 28C21.732 28 28 21.732 28 14C28 6.26801 21.732 0 14 0C6.26801 0 0 6.26801 0 14C0 21.732 6.26801 28 14 28Z" fill="#9831C0"/>
<path fill-rule="evenodd" clip-rule="evenodd" d="M21.9103 8.66486C22.1897 8.94423 22.391 9.29193 22.4942 9.67329C23.0884 12.0652 22.9511 15.8429 22.5057 18.3271C22.4026 18.7085 22.2012 19.0562 21.9219 19.3355C21.6425 19.6149 21.2948 19.8162 20.9134 19.9194C19.5173 20.3002 13.8981 20.3002 13.8981 20.3002C13.8981 20.3002 8.2788 20.3002 6.88265 19.9194C6.50129 19.8162 6.1536 19.6149 5.87423 19.3355C5.59486 19.0562 5.39354 18.7085 5.29036 18.3271C4.69263 15.9456 4.8565 12.1656 5.27881 9.68483C5.38199 9.3034 5.58331 8.95572 5.86268 8.67635C6.14205 8.39698 6.48974 8.19573 6.8711 8.09248C8.26725 7.71175 13.8865 7.7002 13.8865 7.7002C13.8865 7.7002 19.5058 7.7002 20.9019 8.081C21.2833 8.18418 21.6309 8.38549 21.9103 8.66486ZM16.7596 14.0002L12.0981 16.7002V11.3002L16.7596 14.0002Z" fill="white"/>
</svg>
